<?xml version="1.0" encoding="UTF-8" standalone="no"?><svg xmlns="http://www.w3.org/2000/svg" xmlns:xlink="http://www.w3.org/1999/xlink" contentScriptType="application/ecmascript" contentStyleType="text/css" height="446px" preserveAspectRatio="none" style="width:814px;height:446px;" version="1.1" viewBox="0 0 814 446" width="814px" zoomAndPan="magnify"><defs><filter height="300%" id="f1ff3k3zei52fh" width="300%" x="-1" y="-1"><feGaussianBlur result="blurOut" stdDeviation="2.0"/><feColorMatrix in="blurOut" result="blurOut2" type="matrix" values="0 0 0 0 0 0 0 0 0 0 0 0 0 0 0 0 0 0 .4 0"/><feOffset dx="4.0" dy="4.0" in="blurOut2" result="blurOut3"/><feBlend in="SourceGraphic" in2="blurOut3" mode="normal"/></filter></defs><g><!--class PlanExchange--><rect fill="#FEFECE" filter="url(#f1ff3k3zei52fh)" height="61.8359" id="PlanExchange" style="stroke: #A80036; stroke-width: 1.5;" width="195" x="346.5" y="130"/><ellipse cx="400.25" cy="146" fill="#ADD1B2" rx="11" ry="11" style="stroke: #A80036; stroke-width: 1.0;"/><path d="M403.0156,141.875 Q403.1719,141.6563 403.3594,141.5469 Q403.5469,141.4375 403.7656,141.4375 Q404.1406,141.4375 404.375,141.6953 Q404.6094,141.9531 404.6094,142.5625 L404.6094,144.0156 Q404.6094,144.625 404.375,144.8906 Q404.1406,145.1563 403.7656,145.1563 Q403.4219,145.1563 403.2188,144.9531 Q403.0156,144.7656 402.9063,144.25 Q402.8594,143.8906 402.6719,143.7031 Q402.3438,143.3281 401.7344,143.1094 Q401.125,142.8906 400.5,142.8906 Q399.7344,142.8906 399.1016,143.2188 Q398.4688,143.5469 397.9766,144.2969 Q397.4844,145.0469 397.4844,146.0781 L397.4844,147.1719 Q397.4844,148.4063 398.375,149.2266 Q399.2656,150.0469 400.8594,150.0469 Q401.7969,150.0469 402.4531,149.7969 Q402.8438,149.6406 403.2656,149.2031 Q403.5313,148.9375 403.6797,148.8594 Q403.8281,148.7813 404.0313,148.7813 Q404.3594,148.7813 404.6172,149.0391 Q404.875,149.2969 404.875,149.6406 Q404.875,149.9844 404.5313,150.3906 Q404.0313,150.9688 403.2344,151.2969 Q402.1563,151.75 400.8594,151.75 Q399.3438,151.75 398.1406,151.125 Q397.1563,150.625 396.4688,149.5547 Q395.7813,148.4844 395.7813,147.2031 L395.7813,146.0469 Q395.7813,144.7188 396.3984,143.5703 Q397.0156,142.4219 398.1094,141.8047 Q399.2031,141.1875 400.4375,141.1875 Q401.1719,141.1875 401.8203,141.3516 Q402.4688,141.5156 403.0156,141.875 Z "/><text fill="#000000" font-family="sans-serif" font-size="12" lengthAdjust="spacingAndGlyphs" textLength="79" x="420.75" y="150.9102">PlanExchange</text><line style="stroke: #A80036; stroke-width: 1.5;" x1="347.5" x2="540.5" y1="162" y2="162"/><line style="stroke: #A80036; stroke-width: 1.5;" x1="347.5" x2="540.5" y1="170" y2="170"/><ellipse cx="357.5" cy="182.418" fill="#84BE84" rx="3" ry="3" style="stroke: #038048; stroke-width: 1.0;"/><text fill="#000000" font-family="sans-serif" font-size="11" lengthAdjust="spacingAndGlyphs" textLength="169" x="366.5" y="185.4189">Result exportData(Params params)</text><!--class DataProvider--><rect fill="#FEFECE" filter="url(#f1ff3k3zei52fh)" height="61.8359" id="DataProvider" style="stroke: #A80036; stroke-width: 1.5;" width="192" x="119" y="130"/><ellipse cx="175.25" cy="146" fill="#ADD1B2" rx="11" ry="11" style="stroke: #A80036; stroke-width: 1.0;"/><path d="M178.0156,141.875 Q178.1719,141.6563 178.3594,141.5469 Q178.5469,141.4375 178.7656,141.4375 Q179.1406,141.4375 179.375,141.6953 Q179.6094,141.9531 179.6094,142.5625 L179.6094,144.0156 Q179.6094,144.625 179.375,144.8906 Q179.1406,145.1563 178.7656,145.1563 Q178.4219,145.1563 178.2188,144.9531 Q178.0156,144.7656 177.9063,144.25 Q177.8594,143.8906 177.6719,143.7031 Q177.3438,143.3281 176.7344,143.1094 Q176.125,142.8906 175.5,142.8906 Q174.7344,142.8906 174.1016,143.2188 Q173.4688,143.5469 172.9766,144.2969 Q172.4844,145.0469 172.4844,146.0781 L172.4844,147.1719 Q172.4844,148.4063 173.375,149.2266 Q174.2656,150.0469 175.8594,150.0469 Q176.7969,150.0469 177.4531,149.7969 Q177.8438,149.6406 178.2656,149.2031 Q178.5313,148.9375 178.6797,148.8594 Q178.8281,148.7813 179.0313,148.7813 Q179.3594,148.7813 179.6172,149.0391 Q179.875,149.2969 179.875,149.6406 Q179.875,149.9844 179.5313,150.3906 Q179.0313,150.9688 178.2344,151.2969 Q177.1563,151.75 175.8594,151.75 Q174.3438,151.75 173.1406,151.125 Q172.1563,150.625 171.4688,149.5547 Q170.7813,148.4844 170.7813,147.2031 L170.7813,146.0469 Q170.7813,144.7188 171.3984,143.5703 Q172.0156,142.4219 173.1094,141.8047 Q174.2031,141.1875 175.4375,141.1875 Q176.1719,141.1875 176.8203,141.3516 Q177.4688,141.5156 178.0156,141.875 Z "/><text fill="#000000" font-family="sans-serif" font-size="12" lengthAdjust="spacingAndGlyphs" textLength="71" x="195.75" y="150.9102">DataProvider</text><line style="stroke: #A80036; stroke-width: 1.5;" x1="120" x2="310" y1="162" y2="162"/><line style="stroke: #A80036; stroke-width: 1.5;" x1="120" x2="310" y1="170" y2="170"/><ellipse cx="130" cy="182.418" fill="#84BE84" rx="3" ry="3" style="stroke: #038048; stroke-width: 1.0;"/><text fill="#000000" font-family="sans-serif" font-size="11" lengthAdjust="spacingAndGlyphs" textLength="166" x="139" y="185.4189">Data provideData(Params params)</text><!--class JcrDataProvider--><rect fill="#FEFECE" filter="url(#f1ff3k3zei52fh)" height="61.8359" id="JcrDataProvider" style="stroke: #A80036; stroke-width: 1.5;" width="192" x="119" y="8"/><ellipse cx="167.25" cy="24" fill="#ADD1B2" rx="11" ry="11" style="stroke: #A80036; stroke-width: 1.0;"/><path d="M170.0156,19.875 Q170.1719,19.6563 170.3594,19.5469 Q170.5469,19.4375 170.7656,19.4375 Q171.1406,19.4375 171.375,19.6953 Q171.6094,19.9531 171.6094,20.5625 L171.6094,22.0156 Q171.6094,22.625 171.375,22.8906 Q171.1406,23.1563 170.7656,23.1563 Q170.4219,23.1563 170.2188,22.9531 Q170.0156,22.7656 169.9063,22.25 Q169.8594,21.8906 169.6719,21.7031 Q169.3438,21.3281 168.7344,21.1094 Q168.125,20.8906 167.5,20.8906 Q166.7344,20.8906 166.1016,21.2188 Q165.4688,21.5469 164.9766,22.2969 Q164.4844,23.0469 164.4844,24.0781 L164.4844,25.1719 Q164.4844,26.4063 165.375,27.2266 Q166.2656,28.0469 167.8594,28.0469 Q168.7969,28.0469 169.4531,27.7969 Q169.8438,27.6406 170.2656,27.2031 Q170.5313,26.9375 170.6797,26.8594 Q170.8281,26.7813 171.0313,26.7813 Q171.3594,26.7813 171.6172,27.0391 Q171.875,27.2969 171.875,27.6406 Q171.875,27.9844 171.5313,28.3906 Q171.0313,28.9688 170.2344,29.2969 Q169.1563,29.75 167.8594,29.75 Q166.3438,29.75 165.1406,29.125 Q164.1563,28.625 163.4688,27.5547 Q162.7813,26.4844 162.7813,25.2031 L162.7813,24.0469 Q162.7813,22.7188 163.3984,21.5703 Q164.0156,20.4219 165.1094,19.8047 Q166.2031,19.1875 167.4375,19.1875 Q168.1719,19.1875 168.8203,19.3516 Q169.4688,19.5156 170.0156,19.875 Z "/><text fill="#000000" font-family="sans-serif" font-size="12" lengthAdjust="spacingAndGlyphs" textLength="87" x="187.75" y="28.9102">JcrDataProvider</text><line style="stroke: #A80036; stroke-width: 1.5;" x1="120" x2="310" y1="40" y2="40"/><line style="stroke: #A80036; stroke-width: 1.5;" x1="120" x2="310" y1="48" y2="48"/><ellipse cx="130" cy="60.418" fill="#84BE84" rx="3" ry="3" style="stroke: #038048; stroke-width: 1.0;"/><text fill="#000000" font-family="sans-serif" font-size="11" lengthAdjust="spacingAndGlyphs" textLength="166" x="139" y="63.4189">Data provideData(Params params)</text><path d="M346.5,9.5 L346.5,35 L311.25,39 L346.5,43 L346.5,68.5547 A0,0 0 0 0 346.5,68.5547 L523.5,68.5547 A0,0 0 0 0 523.5,68.5547 L523.5,19.5 L513.5,9.5 L346.5,9.5 A0,0 0 0 0 346.5,9.5 " fill="#FBFB77" filter="url(#f1ff3k3zei52fh)" style="stroke: #A80036; stroke-width: 1.0;"/><path d="M513.5,9.5 L513.5,19.5 L523.5,19.5 L513.5,9.5 " fill="#FBFB77" style="stroke: #A80036; stroke-width: 1.0;"/><text fill="#000000" font-family="sans-serif" font-size="13" lengthAdjust="spacingAndGlyphs" textLength="109" x="352.5" y="27.9951">Есть аналогичные</text><text fill="#000000" font-family="sans-serif" font-size="13" lengthAdjust="spacingAndGlyphs" textLength="130" x="356.5" y="44.3467">типовые провайдеры,</text><text fill="#000000" font-family="sans-serif" font-size="13" lengthAdjust="spacingAndGlyphs" textLength="152" x="356.5" y="60.6982">как и для SqlDataProvider</text><!--class SqlDataProvider--><rect fill="#FEFECE" filter="url(#f1ff3k3zei52fh)" height="61.8359" id="SqlDataProvider" style="stroke: #A80036; stroke-width: 1.5;" width="192" x="119" y="252"/><ellipse cx="166.25" cy="268" fill="#ADD1B2" rx="11" ry="11" style="stroke: #A80036; stroke-width: 1.0;"/><path d="M169.0156,263.875 Q169.1719,263.6563 169.3594,263.5469 Q169.5469,263.4375 169.7656,263.4375 Q170.1406,263.4375 170.375,263.6953 Q170.6094,263.9531 170.6094,264.5625 L170.6094,266.0156 Q170.6094,266.625 170.375,266.8906 Q170.1406,267.1563 169.7656,267.1563 Q169.4219,267.1563 169.2188,266.9531 Q169.0156,266.7656 168.9063,266.25 Q168.8594,265.8906 168.6719,265.7031 Q168.3438,265.3281 167.7344,265.1094 Q167.125,264.8906 166.5,264.8906 Q165.7344,264.8906 165.1016,265.2188 Q164.4688,265.5469 163.9766,266.2969 Q163.4844,267.0469 163.4844,268.0781 L163.4844,269.1719 Q163.4844,270.4063 164.375,271.2266 Q165.2656,272.0469 166.8594,272.0469 Q167.7969,272.0469 168.4531,271.7969 Q168.8438,271.6406 169.2656,271.2031 Q169.5313,270.9375 169.6797,270.8594 Q169.8281,270.7813 170.0313,270.7813 Q170.3594,270.7813 170.6172,271.0391 Q170.875,271.2969 170.875,271.6406 Q170.875,271.9844 170.5313,272.3906 Q170.0313,272.9688 169.2344,273.2969 Q168.1563,273.75 166.8594,273.75 Q165.3438,273.75 164.1406,273.125 Q163.1563,272.625 162.4688,271.5547 Q161.7813,270.4844 161.7813,269.2031 L161.7813,268.0469 Q161.7813,266.7188 162.3984,265.5703 Q163.0156,264.4219 164.1094,263.8047 Q165.2031,263.1875 166.4375,263.1875 Q167.1719,263.1875 167.8203,263.3516 Q168.4688,263.5156 169.0156,263.875 Z "/><text fill="#000000" font-family="sans-serif" font-size="12" lengthAdjust="spacingAndGlyphs" textLength="89" x="186.75" y="272.9102">SqlDataProvider</text><line style="stroke: #A80036; stroke-width: 1.5;" x1="120" x2="310" y1="284" y2="284"/><line style="stroke: #A80036; stroke-width: 1.5;" x1="120" x2="310" y1="292" y2="292"/><ellipse cx="130" cy="304.418" fill="#84BE84" rx="3" ry="3" style="stroke: #038048; stroke-width: 1.0;"/><text fill="#000000" font-family="sans-serif" font-size="11" lengthAdjust="spacingAndGlyphs" textLength="166" x="139" y="307.4189">Data provideData(Params params)</text><!--class ExpendsProvider--><rect fill="#FEFECE" filter="url(#f1ff3k3zei52fh)" height="61.8359" id="ExpendsProvider" style="stroke: #A80036; stroke-width: 1.5;" width="192" x="346" y="252"/><ellipse cx="391.25" cy="268" fill="#ADD1B2" rx="11" ry="11" style="stroke: #A80036; stroke-width: 1.0;"/><path d="M394.0156,263.875 Q394.1719,263.6563 394.3594,263.5469 Q394.5469,263.4375 394.7656,263.4375 Q395.1406,263.4375 395.375,263.6953 Q395.6094,263.9531 395.6094,264.5625 L395.6094,266.0156 Q395.6094,266.625 395.375,266.8906 Q395.1406,267.1563 394.7656,267.1563 Q394.4219,267.1563 394.2188,266.9531 Q394.0156,266.7656 393.9063,266.25 Q393.8594,265.8906 393.6719,265.7031 Q393.3438,265.3281 392.7344,265.1094 Q392.125,264.8906 391.5,264.8906 Q390.7344,264.8906 390.1016,265.2188 Q389.4688,265.5469 388.9766,266.2969 Q388.4844,267.0469 388.4844,268.0781 L388.4844,269.1719 Q388.4844,270.4063 389.375,271.2266 Q390.2656,272.0469 391.8594,272.0469 Q392.7969,272.0469 393.4531,271.7969 Q393.8438,271.6406 394.2656,271.2031 Q394.5313,270.9375 394.6797,270.8594 Q394.8281,270.7813 395.0313,270.7813 Q395.3594,270.7813 395.6172,271.0391 Q395.875,271.2969 395.875,271.6406 Q395.875,271.9844 395.5313,272.3906 Q395.0313,272.9688 394.2344,273.2969 Q393.1563,273.75 391.8594,273.75 Q390.3438,273.75 389.1406,273.125 Q388.1563,272.625 387.4688,271.5547 Q386.7813,270.4844 386.7813,269.2031 L386.7813,268.0469 Q386.7813,266.7188 387.3984,265.5703 Q388.0156,264.4219 389.1094,263.8047 Q390.2031,263.1875 391.4375,263.1875 Q392.1719,263.1875 392.8203,263.3516 Q393.4688,263.5156 394.0156,263.875 Z "/><text fill="#000000" font-family="sans-serif" font-size="12" lengthAdjust="spacingAndGlyphs" textLength="93" x="411.75" y="272.9102">ExpendsProvider</text><line style="stroke: #A80036; stroke-width: 1.5;" x1="347" x2="537" y1="284" y2="284"/><line style="stroke: #A80036; stroke-width: 1.5;" x1="347" x2="537" y1="292" y2="292"/><ellipse cx="357" cy="304.418" fill="#84BE84" rx="3" ry="3" style="stroke: #038048; stroke-width: 1.0;"/><text fill="#000000" font-family="sans-serif" font-size="11" lengthAdjust="spacingAndGlyphs" textLength="166" x="366" y="307.4189">Data provideData(Params params)</text><!--class IncomeProvider--><rect fill="#FEFECE" filter="url(#f1ff3k3zei52fh)" height="61.8359" id="IncomeProvider" style="stroke: #A80036; stroke-width: 1.5;" width="192" x="6" y="374"/><ellipse cx="54.75" cy="390" fill="#ADD1B2" rx="11" ry="11" style="stroke: #A80036; stroke-width: 1.0;"/><path d="M57.5156,385.875 Q57.6719,385.6563 57.8594,385.5469 Q58.0469,385.4375 58.2656,385.4375 Q58.6406,385.4375 58.875,385.6953 Q59.1094,385.9531 59.1094,386.5625 L59.1094,388.0156 Q59.1094,388.625 58.875,388.8906 Q58.6406,389.1563 58.2656,389.1563 Q57.9219,389.1563 57.7188,388.9531 Q57.5156,388.7656 57.4063,388.25 Q57.3594,387.8906 57.1719,387.7031 Q56.8438,387.3281 56.2344,387.1094 Q55.625,386.8906 55,386.8906 Q54.2344,386.8906 53.6016,387.2188 Q52.9688,387.5469 52.4766,388.2969 Q51.9844,389.0469 51.9844,390.0781 L51.9844,391.1719 Q51.9844,392.4063 52.875,393.2266 Q53.7656,394.0469 55.3594,394.0469 Q56.2969,394.0469 56.9531,393.7969 Q57.3438,393.6406 57.7656,393.2031 Q58.0313,392.9375 58.1797,392.8594 Q58.3281,392.7813 58.5313,392.7813 Q58.8594,392.7813 59.1172,393.0391 Q59.375,393.2969 59.375,393.6406 Q59.375,393.9844 59.0313,394.3906 Q58.5313,394.9688 57.7344,395.2969 Q56.6563,395.75 55.3594,395.75 Q53.8438,395.75 52.6406,395.125 Q51.6563,394.625 50.9688,393.5547 Q50.2813,392.4844 50.2813,391.2031 L50.2813,390.0469 Q50.2813,388.7188 50.8984,387.5703 Q51.5156,386.4219 52.6094,385.8047 Q53.7031,385.1875 54.9375,385.1875 Q55.6719,385.1875 56.3203,385.3516 Q56.9688,385.5156 57.5156,385.875 Z "/><text fill="#000000" font-family="sans-serif" font-size="12" lengthAdjust="spacingAndGlyphs" textLength="86" x="75.25" y="394.9102">IncomeProvider</text><line style="stroke: #A80036; stroke-width: 1.5;" x1="7" x2="197" y1="406" y2="406"/><line style="stroke: #A80036; stroke-width: 1.5;" x1="7" x2="197" y1="414" y2="414"/><ellipse cx="17" cy="426.418" fill="#84BE84" rx="3" ry="3" style="stroke: #038048; stroke-width: 1.0;"/><text fill="#000000" font-family="sans-serif" font-size="11" lengthAdjust="spacingAndGlyphs" textLength="166" x="26" y="429.4189">Data provideData(Params params)</text><!--class IFDBProvider--><rect fill="#FEFECE" filter="url(#f1ff3k3zei52fh)" height="61.8359" id="IFDBProvider" style="stroke: #A80036; stroke-width: 1.5;" width="192" x="233" y="374"/><ellipse cx="288.75" cy="390" fill="#ADD1B2" rx="11" ry="11" style="stroke: #A80036; stroke-width: 1.0;"/><path d="M291.5156,385.875 Q291.6719,385.6563 291.8594,385.5469 Q292.0469,385.4375 292.2656,385.4375 Q292.6406,385.4375 292.875,385.6953 Q293.1094,385.9531 293.1094,386.5625 L293.1094,388.0156 Q293.1094,388.625 292.875,388.8906 Q292.6406,389.1563 292.2656,389.1563 Q291.9219,389.1563 291.7188,388.9531 Q291.5156,388.7656 291.4063,388.25 Q291.3594,387.8906 291.1719,387.7031 Q290.8438,387.3281 290.2344,387.1094 Q289.625,386.8906 289,386.8906 Q288.2344,386.8906 287.6016,387.2188 Q286.9688,387.5469 286.4766,388.2969 Q285.9844,389.0469 285.9844,390.0781 L285.9844,391.1719 Q285.9844,392.4063 286.875,393.2266 Q287.7656,394.0469 289.3594,394.0469 Q290.2969,394.0469 290.9531,393.7969 Q291.3438,393.6406 291.7656,393.2031 Q292.0313,392.9375 292.1797,392.8594 Q292.3281,392.7813 292.5313,392.7813 Q292.8594,392.7813 293.1172,393.0391 Q293.375,393.2969 293.375,393.6406 Q293.375,393.9844 293.0313,394.3906 Q292.5313,394.9688 291.7344,395.2969 Q290.6563,395.75 289.3594,395.75 Q287.8438,395.75 286.6406,395.125 Q285.6563,394.625 284.9688,393.5547 Q284.2813,392.4844 284.2813,391.2031 L284.2813,390.0469 Q284.2813,388.7188 284.8984,387.5703 Q285.5156,386.4219 286.6094,385.8047 Q287.7031,385.1875 288.9375,385.1875 Q289.6719,385.1875 290.3203,385.3516 Q290.9688,385.5156 291.5156,385.875 Z "/><text fill="#000000" font-family="sans-serif" font-size="12" lengthAdjust="spacingAndGlyphs" textLength="72" x="309.25" y="394.9102">IFDBProvider</text><line style="stroke: #A80036; stroke-width: 1.5;" x1="234" x2="424" y1="406" y2="406"/><line style="stroke: #A80036; stroke-width: 1.5;" x1="234" x2="424" y1="414" y2="414"/><ellipse cx="244" cy="426.418" fill="#84BE84" rx="3" ry="3" style="stroke: #038048; stroke-width: 1.0;"/><text fill="#000000" font-family="sans-serif" font-size="11" lengthAdjust="spacingAndGlyphs" textLength="166" x="253" y="429.4189">Data provideData(Params params)</text><!--class MessageSender--><rect fill="#FEFECE" filter="url(#f1ff3k3zei52fh)" height="61.8359" id="MessageSender" style="stroke: #A80036; stroke-width: 1.5;" width="226" x="577" y="130"/><ellipse cx="640.25" cy="146" fill="#ADD1B2" rx="11" ry="11" style="stroke: #A80036; stroke-width: 1.0;"/><path d="M643.0156,141.875 Q643.1719,141.6563 643.3594,141.5469 Q643.5469,141.4375 643.7656,141.4375 Q644.1406,141.4375 644.375,141.6953 Q644.6094,141.9531 644.6094,142.5625 L644.6094,144.0156 Q644.6094,144.625 644.375,144.8906 Q644.1406,145.1563 643.7656,145.1563 Q643.4219,145.1563 643.2188,144.9531 Q643.0156,144.7656 642.9063,144.25 Q642.8594,143.8906 642.6719,143.7031 Q642.3438,143.3281 641.7344,143.1094 Q641.125,142.8906 640.5,142.8906 Q639.7344,142.8906 639.1016,143.2188 Q638.4688,143.5469 637.9766,144.2969 Q637.4844,145.0469 637.4844,146.0781 L637.4844,147.1719 Q637.4844,148.4063 638.375,149.2266 Q639.2656,150.0469 640.8594,150.0469 Q641.7969,150.0469 642.4531,149.7969 Q642.8438,149.6406 643.2656,149.2031 Q643.5313,148.9375 643.6797,148.8594 Q643.8281,148.7813 644.0313,148.7813 Q644.3594,148.7813 644.6172,149.0391 Q644.875,149.2969 644.875,149.6406 Q644.875,149.9844 644.5313,150.3906 Q644.0313,150.9688 643.2344,151.2969 Q642.1563,151.75 640.8594,151.75 Q639.3438,151.75 638.1406,151.125 Q637.1563,150.625 636.4688,149.5547 Q635.7813,148.4844 635.7813,147.2031 L635.7813,146.0469 Q635.7813,144.7188 636.3984,143.5703 Q637.0156,142.4219 638.1094,141.8047 Q639.2031,141.1875 640.4375,141.1875 Q641.1719,141.1875 641.8203,141.3516 Q642.4688,141.5156 643.0156,141.875 Z "/><text fill="#000000" font-family="sans-serif" font-size="12" lengthAdjust="spacingAndGlyphs" textLength="91" x="660.75" y="150.9102">MessageSender</text><line style="stroke: #A80036; stroke-width: 1.5;" x1="578" x2="802" y1="162" y2="162"/><line style="stroke: #A80036; stroke-width: 1.5;" x1="578" x2="802" y1="170" y2="170"/><ellipse cx="588" cy="182.418" fill="#84BE84" rx="3" ry="3" style="stroke: #038048; stroke-width: 1.0;"/><text fill="#000000" font-family="sans-serif" font-size="11" lengthAdjust="spacingAndGlyphs" textLength="200" x="597" y="185.4189">Result sendMessage(Message message)</text><!--class MessageSaver--><rect fill="#FEFECE" filter="url(#f1ff3k3zei52fh)" height="61.8359" id="MessageSaver" style="stroke: #A80036; stroke-width: 1.5;" width="216" x="582" y="8"/><ellipse cx="644.75" cy="24" fill="#ADD1B2" rx="11" ry="11" style="stroke: #A80036; stroke-width: 1.0;"/><path d="M647.5156,19.875 Q647.6719,19.6563 647.8594,19.5469 Q648.0469,19.4375 648.2656,19.4375 Q648.6406,19.4375 648.875,19.6953 Q649.1094,19.9531 649.1094,20.5625 L649.1094,22.0156 Q649.1094,22.625 648.875,22.8906 Q648.6406,23.1563 648.2656,23.1563 Q647.9219,23.1563 647.7188,22.9531 Q647.5156,22.7656 647.4063,22.25 Q647.3594,21.8906 647.1719,21.7031 Q646.8438,21.3281 646.2344,21.1094 Q645.625,20.8906 645,20.8906 Q644.2344,20.8906 643.6016,21.2188 Q642.9688,21.5469 642.4766,22.2969 Q641.9844,23.0469 641.9844,24.0781 L641.9844,25.1719 Q641.9844,26.4063 642.875,27.2266 Q643.7656,28.0469 645.3594,28.0469 Q646.2969,28.0469 646.9531,27.7969 Q647.3438,27.6406 647.7656,27.2031 Q648.0313,26.9375 648.1797,26.8594 Q648.3281,26.7813 648.5313,26.7813 Q648.8594,26.7813 649.1172,27.0391 Q649.375,27.2969 649.375,27.6406 Q649.375,27.9844 649.0313,28.3906 Q648.5313,28.9688 647.7344,29.2969 Q646.6563,29.75 645.3594,29.75 Q643.8438,29.75 642.6406,29.125 Q641.6563,28.625 640.9688,27.5547 Q640.2813,26.4844 640.2813,25.2031 L640.2813,24.0469 Q640.2813,22.7188 640.8984,21.5703 Q641.5156,20.4219 642.6094,19.8047 Q643.7031,19.1875 644.9375,19.1875 Q645.6719,19.1875 646.3203,19.3516 Q646.9688,19.5156 647.5156,19.875 Z "/><text fill="#000000" font-family="sans-serif" font-size="12" lengthAdjust="spacingAndGlyphs" textLength="82" x="665.25" y="28.9102">MessageSaver</text><line style="stroke: #A80036; stroke-width: 1.5;" x1="583" x2="797" y1="40" y2="40"/><line style="stroke: #A80036; stroke-width: 1.5;" x1="583" x2="797" y1="48" y2="48"/><ellipse cx="593" cy="60.418" fill="#84BE84" rx="3" ry="3" style="stroke: #038048; stroke-width: 1.0;"/><text fill="#000000" font-family="sans-serif" font-size="11" lengthAdjust="spacingAndGlyphs" textLength="190" x="602" y="63.4189">void saveMessage(Message message)</text><!--class SettingsService--><rect fill="#FEFECE" filter="url(#f1ff3k3zei52fh)" height="61.8359" id="SettingsService" style="stroke: #A80036; stroke-width: 1.5;" width="199" x="590.5" y="252"/><ellipse cx="643.25" cy="268" fill="#ADD1B2" rx="11" ry="11" style="stroke: #A80036; stroke-width: 1.0;"/><path d="M646.0156,263.875 Q646.1719,263.6563 646.3594,263.5469 Q646.5469,263.4375 646.7656,263.4375 Q647.1406,263.4375 647.375,263.6953 Q647.6094,263.9531 647.6094,264.5625 L647.6094,266.0156 Q647.6094,266.625 647.375,266.8906 Q647.1406,267.1563 646.7656,267.1563 Q646.4219,267.1563 646.2188,266.9531 Q646.0156,266.7656 645.9063,266.25 Q645.8594,265.8906 645.6719,265.7031 Q645.3438,265.3281 644.7344,265.1094 Q644.125,264.8906 643.5,264.8906 Q642.7344,264.8906 642.1016,265.2188 Q641.4688,265.5469 640.9766,266.2969 Q640.4844,267.0469 640.4844,268.0781 L640.4844,269.1719 Q640.4844,270.4063 641.375,271.2266 Q642.2656,272.0469 643.8594,272.0469 Q644.7969,272.0469 645.4531,271.7969 Q645.8438,271.6406 646.2656,271.2031 Q646.5313,270.9375 646.6797,270.8594 Q646.8281,270.7813 647.0313,270.7813 Q647.3594,270.7813 647.6172,271.0391 Q647.875,271.2969 647.875,271.6406 Q647.875,271.9844 647.5313,272.3906 Q647.0313,272.9688 646.2344,273.2969 Q645.1563,273.75 643.8594,273.75 Q642.3438,273.75 641.1406,273.125 Q640.1563,272.625 639.4688,271.5547 Q638.7813,270.4844 638.7813,269.2031 L638.7813,268.0469 Q638.7813,266.7188 639.3984,265.5703 Q640.0156,264.4219 641.1094,263.8047 Q642.2031,263.1875 643.4375,263.1875 Q644.1719,263.1875 644.8203,263.3516 Q645.4688,263.5156 646.0156,263.875 Z "/><text fill="#000000" font-family="sans-serif" font-size="12" lengthAdjust="spacingAndGlyphs" textLength="85" x="663.75" y="272.9102">SettingsService</text><line style="stroke: #A80036; stroke-width: 1.5;" x1="591.5" x2="788.5" y1="284" y2="284"/><line style="stroke: #A80036; stroke-width: 1.5;" x1="591.5" x2="788.5" y1="292" y2="292"/><ellipse cx="601.5" cy="304.418" fill="#84BE84" rx="3" ry="3" style="stroke: #038048; stroke-width: 1.0;"/><text fill="#000000" font-family="sans-serif" font-size="11" lengthAdjust="spacingAndGlyphs" textLength="173" x="610.5" y="307.4189">Settings getSettings(Params param)</text><!--link DataProvider to PlanExchange--><path d="M311.16,161 C318.51,161 325.86,161 333.22,161 " fill="none" id="DataProvider-PlanExchange" style="stroke: #A80036; stroke-width: 1.0;"/><polygon fill="#A80036" points="346.45,161,340.45,157,334.45,161,340.45,165,346.45,161" style="stroke: #A80036; stroke-width: 1.0;"/><!--link PlanExchange to MessageSender--><path d="M554.8,161 C562.17,161 569.54,161 576.91,161 " fill="none" id="PlanExchange-MessageSender" style="stroke: #A80036; stroke-width: 1.0;"/><polygon fill="#FFFFFF" points="541.54,161,547.54,165,553.54,161,547.54,157,541.54,161" style="stroke: #A80036; stroke-width: 1.0;"/><!--link MessageSender to SettingsService--><path d="M690,205.28 C690,220.67 690,237.66 690,251.73 " fill="none" id="MessageSender-SettingsService" style="stroke: #A80036; stroke-width: 1.0;"/><polygon fill="#A80036" points="690,192.28,686,198.28,690,204.28,694,198.28,690,192.28" style="stroke: #A80036; stroke-width: 1.0;"/><!--link MessageSaver to MessageSender--><path d="M690,70.28 C690,84.35 690,101.34 690,116.73 " fill="none" id="MessageSaver-MessageSender" style="stroke: #A80036; stroke-width: 1.0;"/><polygon fill="#A80036" points="690,129.73,694,123.73,690,117.73,686,123.73,690,129.73" style="stroke: #A80036; stroke-width: 1.0;"/><!--link JcrDataProvider to DataProvider--><path d="M215,70.28 C215,84.35 215,101.34 215,116.73 " fill="none" id="JcrDataProvider-DataProvider" style="stroke: #A80036; stroke-width: 1.0;"/><polygon fill="#A80036" points="215,129.73,219,123.73,215,117.73,211,123.73,215,129.73" style="stroke: #A80036; stroke-width: 1.0;"/><!--link DataProvider to SqlDataProvider--><path d="M215,205.28 C215,220.67 215,237.66 215,251.73 " fill="none" id="DataProvider-SqlDataProvider" style="stroke: #A80036; stroke-width: 1.0;"/><polygon fill="#A80036" points="215,192.28,211,198.28,215,204.28,219,198.28,215,192.28" style="stroke: #A80036; stroke-width: 1.0;"/><!--link SqlDataProvider to ExpendsProvider--><path d="M331.29,283 C336.18,283 341.06,283 345.95,283 " fill="none" id="SqlDataProvider-ExpendsProvider" style="stroke: #A80036; stroke-width: 1.0;"/><polygon fill="none" points="331.21,290,311.21,283,331.21,276,331.21,290" style="stroke: #A80036; stroke-width: 1.0;"/><!--link SqlDataProvider to IncomeProvider--><path d="M172.48,329.16 C158.46,344.04 143.22,360.23 130.51,373.73 " fill="none" id="SqlDataProvider-IncomeProvider" style="stroke: #A80036; stroke-width: 1.0;"/><polygon fill="none" points="167.68,324.04,186.49,314.28,177.87,333.64,167.68,324.04" style="stroke: #A80036; stroke-width: 1.0;"/><!--link SqlDataProvider to IFDBProvider--><path d="M257.9,329.16 C272.04,344.04 287.42,360.23 300.24,373.73 " fill="none" id="SqlDataProvider-IFDBProvider" style="stroke: #A80036; stroke-width: 1.0;"/><polygon fill="none" points="252.47,333.6,243.77,314.28,262.62,323.96,252.47,333.6" style="stroke: #A80036; stroke-width: 1.0;"/><!--
@startuml
class PlanExchange {
  +Result exportData(Params params)
}
class DataProvider {
  +Data provideData(Params params)
}
class JcrDataProvider {
  +Data provideData(Params params)
}
note right: Есть аналогичные\n типовые провайдеры,\n как и для SqlDataProvider 
class SqlDataProvider {
  +Data provideData(Params params)
}
class ExpendsProvider {
  +Data provideData(Params params)
}
class IncomeProvider {
  +Data provideData(Params params)
}
class IFDBProvider {
  +Data provideData(Params params)
}
class MessageSender {
  +Result sendMessage(Message message)
}
class MessageSaver {
  +void saveMessage(Message message)
}
class SettingsService {
  +Settings getSettings(Params param)
}

DataProvider -* PlanExchange 
PlanExchange o- MessageSender
MessageSender *- - SettingsService
MessageSaver - -* MessageSender
JcrDataProvider - -* DataProvider
DataProvider *- - SqlDataProvider
SqlDataProvider <|- ExpendsProvider
SqlDataProvider <|- - IncomeProvider
SqlDataProvider <|- - IFDBProvider
@enduml

PlantUML version 1.2019.06(Fri May 24 20:10:25 MSK 2019)
(GPL source distribution)
Java Runtime: Java(TM) SE Runtime Environment
JVM: Java HotSpot(TM) 64-Bit Server VM
Java Version: 1.8.0_241-b07
Operating System: Windows 10
OS Version: 10.0
Default Encoding: UTF-8
Language: en
Country: US
--></g></svg>