<?xml version="1.0" encoding="UTF-8" standalone="no"?><svg xmlns="http://www.w3.org/2000/svg" xmlns:xlink="http://www.w3.org/1999/xlink" contentScriptType="application/ecmascript" contentStyleType="text/css" height="796px" preserveAspectRatio="none" style="width:475px;height:796px;" version="1.1" viewBox="0 0 475 796" width="475px" zoomAndPan="magnify"><defs><filter height="300%" id="f1bjkmzfg3ymls" width="300%" x="-1" y="-1"><feGaussianBlur result="blurOut" stdDeviation="2.0"/><feColorMatrix in="blurOut" result="blurOut2" type="matrix" values="0 0 0 0 0 0 0 0 0 0 0 0 0 0 0 0 0 0 .4 0"/><feOffset dx="4.0" dy="4.0" in="blurOut2" result="blurOut3"/><feBlend in="SourceGraphic" in2="blurOut3" mode="normal"/></filter></defs><g><rect fill="#FFE4B5" height="32.6406" rx="7" ry="7" style="stroke: #FF0000; stroke-width: 1.5;" width="306" x="83" y="12"/><text fill="#000000" font-family="sans-serif" font-size="18" font-weight="bold" lengthAdjust="spacingAndGlyphs" textLength="290" x="91" y="35.6855">Алгоритм синхронизации с НСИ</text><ellipse cx="247.5" cy="57.6406" fill="#000000" filter="url(#f1bjkmzfg3ymls)" rx="10" ry="10" style="stroke: none; stroke-width: 1.0;"/><rect fill="#FEFECE" filter="url(#f1bjkmzfg3ymls)" height="95.4688" rx="12.5" ry="12.5" style="stroke: #A80036; stroke-width: 1.5;" width="302" x="96.5" y="87.6406"/><text fill="#000000" font-family="sans-serif" font-size="12" lengthAdjust="spacingAndGlyphs" textLength="249" x="106.5" y="110.0977">Формирование параметров синхронизации</text><ellipse cx="112" cy="120.3281" fill="#000000" rx="2.5" ry="2.5" style="stroke: #000000; stroke-width: 0.0;"/><text fill="#000000" font-family="sans-serif" font-size="12" lengthAdjust="spacingAndGlyphs" textLength="118" x="117.5" y="125.1914">выбор справочников</text><ellipse cx="112" cy="135.4219" fill="#000000" rx="2.5" ry="2.5" style="stroke: #000000; stroke-width: 0.0;"/><text fill="#000000" font-family="sans-serif" font-size="12" lengthAdjust="spacingAndGlyphs" textLength="271" x="117.5" y="140.2852">установка параметов для каждого справочника</text><rect fill="#000000" height="3.5" style="stroke: #000000; stroke-width: 0.0;" width="3.5" x="123.5" y="150.0156"/><text fill="#000000" font-family="sans-serif" font-size="12" lengthAdjust="spacingAndGlyphs" textLength="87" x="128.5" y="155.3789">метка времени</text><rect fill="#000000" height="3.5" style="stroke: #000000; stroke-width: 0.0;" width="3.5" x="123.5" y="165.1094"/><text fill="#000000" font-family="sans-serif" font-size="12" lengthAdjust="spacingAndGlyphs" textLength="171" x="128.5" y="170.4727">количество объектов в пакете</text><rect fill="#FEFECE" filter="url(#f1bjkmzfg3ymls)" height="35.0938" rx="12.5" ry="12.5" style="stroke: #A80036; stroke-width: 1.5;" width="134" x="180.5" y="258.2031"/><text fill="#000000" font-family="sans-serif" font-size="12" lengthAdjust="spacingAndGlyphs" textLength="114" x="190.5" y="280.6602">Выбор справочника</text><rect fill="#FEFECE" filter="url(#f1bjkmzfg3ymls)" height="35.0938" rx="12.5" ry="12.5" style="stroke: #A80036; stroke-width: 1.5;" width="127" x="184" y="368.3906"/><text fill="#000000" font-family="sans-serif" font-size="12" lengthAdjust="spacingAndGlyphs" textLength="107" x="194" y="390.8477">Получение данных</text><path d="M21,457.4844 L21,532.8906 A0,0 0 0 0 21,532.8906 L160,532.8906 A0,0 0 0 0 160,532.8906 L160,499.1875 L180,495.1875 L160,491.1875 L160,467.4844 L150,457.4844 L21,457.4844 A0,0 0 0 0 21,457.4844 " fill="#FBFB77" filter="url(#f1bjkmzfg3ymls)" style="stroke: #A80036; stroke-width: 1.0;"/><path d="M150,457.4844 L150,467.4844 L160,467.4844 L150,457.4844 " fill="#FBFB77" style="stroke: #A80036; stroke-width: 1.0;"/><text fill="#000000" font-family="sans-serif" font-size="13" lengthAdjust="spacingAndGlyphs" textLength="76" x="27" y="475.9795">Для каждого</text><text fill="#000000" font-family="sans-serif" font-size="13" lengthAdjust="spacingAndGlyphs" textLength="76" x="27" y="492.3311">справочника</text><text fill="#000000" font-family="sans-serif" font-size="13" lengthAdjust="spacingAndGlyphs" textLength="96" x="27" y="508.6826">определен свой</text><text fill="#000000" font-family="sans-serif" font-size="13" lengthAdjust="spacingAndGlyphs" textLength="118" x="27" y="525.0342">алгоритм обработки</text><rect fill="#FEFECE" filter="url(#f1bjkmzfg3ymls)" height="35.0938" rx="12.5" ry="12.5" style="stroke: #A80036; stroke-width: 1.5;" width="135" x="180" y="477.6406"/><text fill="#000000" font-family="sans-serif" font-size="12" lengthAdjust="spacingAndGlyphs" textLength="115" x="190" y="500.0977">Обработать данные</text><path d="M10,552.2148 L10,611.2695 A0,0 0 0 0 10,611.2695 L147,611.2695 A0,0 0 0 0 147,611.2695 L147,585.7422 L167,581.7422 L147,577.7422 L147,562.2148 L137,552.2148 L10,552.2148 A0,0 0 0 0 10,552.2148 " fill="#FBFB77" filter="url(#f1bjkmzfg3ymls)" style="stroke: #A80036; stroke-width: 1.0;"/><path d="M137,552.2148 L137,562.2148 L147,562.2148 L137,552.2148 " fill="#FBFB77" style="stroke: #A80036; stroke-width: 1.0;"/><text fill="#000000" font-family="sans-serif" font-size="13" lengthAdjust="spacingAndGlyphs" textLength="116" x="16" y="570.71">Приходит из НСИ и</text><text fill="#000000" font-family="sans-serif" font-size="13" lengthAdjust="spacingAndGlyphs" textLength="106" x="16" y="587.0615">используется при</text><text fill="#000000" font-family="sans-serif" font-size="13" lengthAdjust="spacingAndGlyphs" textLength="97" x="16" y="603.4131">запросе данных</text><rect fill="#FEFECE" filter="url(#f1bjkmzfg3ymls)" height="35.0938" rx="12.5" ry="12.5" style="stroke: #A80036; stroke-width: 1.5;" width="161" x="167" y="564.1953"/><text fill="#000000" font-family="sans-serif" font-size="12" lengthAdjust="spacingAndGlyphs" textLength="141" x="177" y="586.6523">Сдвинуть метку времени</text><polygon fill="#FEFECE" filter="url(#f1bjkmzfg3ymls)" points="212,423.4844,283,423.4844,295,435.4844,283,447.4844,212,447.4844,200,435.4844,212,423.4844" style="stroke: #A80036; stroke-width: 1.5;"/><text fill="#000000" font-family="sans-serif" font-size="11" lengthAdjust="spacingAndGlyphs" textLength="71" x="212" y="439.9854">Есть данные?</text><polygon fill="#FEFECE" filter="url(#f1bjkmzfg3ymls)" points="247.5,631.2695,259.5,643.2695,247.5,655.2695,235.5,643.2695,247.5,631.2695" style="stroke: #A80036; stroke-width: 1.5;"/><rect fill="#FEFECE" filter="url(#f1bjkmzfg3ymls)" height="35.0938" rx="12.5" ry="12.5" style="stroke: #A80036; stroke-width: 1.5;" width="343" x="76" y="313.2969"/><text fill="#000000" font-family="sans-serif" font-size="12" lengthAdjust="spacingAndGlyphs" textLength="323" x="86" y="335.7539">Формирование soap-запроса получения данных из НСИ</text><polygon fill="#FEFECE" filter="url(#f1bjkmzfg3ymls)" points="212,675.2695,283,675.2695,295,687.2695,283,699.2695,212,699.2695,200,687.2695,212,675.2695" style="stroke: #A80036; stroke-width: 1.5;"/><text fill="#000000" font-family="sans-serif" font-size="11" lengthAdjust="spacingAndGlyphs" textLength="71" x="212" y="691.7705">Есть данные?</text><rect fill="#FEFECE" filter="url(#f1bjkmzfg3ymls)" height="35.0938" rx="12.5" ry="12.5" style="stroke: #A80036; stroke-width: 1.5;" width="322" x="86.5" y="203.1094"/><text fill="#000000" font-family="sans-serif" font-size="12" lengthAdjust="spacingAndGlyphs" textLength="302" x="96.5" y="225.5664">Инициализация цикла по выбранным справочникам</text><polygon fill="#FEFECE" filter="url(#f1bjkmzfg3ymls)" points="186.5,719.2695,308.5,719.2695,320.5,731.2695,308.5,743.2695,186.5,743.2695,174.5,731.2695,186.5,719.2695" style="stroke: #A80036; stroke-width: 1.5;"/><text fill="#000000" font-family="sans-serif" font-size="11" lengthAdjust="spacingAndGlyphs" textLength="122" x="186.5" y="735.7705">Есть еще справочники?</text><ellipse cx="247.5" cy="774.2695" fill="#FFFFFF" filter="url(#f1bjkmzfg3ymls)" rx="11" ry="11" style="stroke: #000000; stroke-width: 1.0;"/><ellipse cx="247.5" cy="774.2695" fill="#000000" rx="6" ry="6" style="stroke: #7F7F7F; stroke-width: 1.0;"/><line style="stroke: #A80036; stroke-width: 1.5;" x1="247.5" x2="247.5" y1="67.6406" y2="87.6406"/><polygon fill="#A80036" points="243.5,77.6406,247.5,87.6406,251.5,77.6406,247.5,81.6406" style="stroke: #A80036; stroke-width: 1.0;"/><line style="stroke: #A80036; stroke-width: 1.5;" x1="247.5" x2="247.5" y1="512.7344" y2="564.1953"/><polygon fill="#A80036" points="243.5,554.1953,247.5,564.1953,251.5,554.1953,247.5,558.1953" style="stroke: #A80036; stroke-width: 1.0;"/><line style="stroke: #A80036; stroke-width: 1.5;" x1="247.5" x2="247.5" y1="447.4844" y2="477.6406"/><polygon fill="#A80036" points="243.5,467.6406,247.5,477.6406,251.5,467.6406,247.5,471.6406" style="stroke: #A80036; stroke-width: 1.0;"/><line style="stroke: #A80036; stroke-width: 1.5;" x1="295" x2="338" y1="435.4844" y2="435.4844"/><polygon fill="#A80036" points="334,532.2148,338,542.2148,342,532.2148,338,536.2148" style="stroke: #A80036; stroke-width: 1.5;"/><line style="stroke: #A80036; stroke-width: 1.5;" x1="338" x2="338" y1="435.4844" y2="643.2695"/><line style="stroke: #A80036; stroke-width: 1.5;" x1="338" x2="259.5" y1="643.2695" y2="643.2695"/><polygon fill="#A80036" points="269.5,639.2695,259.5,643.2695,269.5,647.2695,265.5,643.2695" style="stroke: #A80036; stroke-width: 1.0;"/><line style="stroke: #A80036; stroke-width: 1.5;" x1="247.5" x2="247.5" y1="599.2891" y2="631.2695"/><polygon fill="#A80036" points="243.5,621.2695,247.5,631.2695,251.5,621.2695,247.5,625.2695" style="stroke: #A80036; stroke-width: 1.0;"/><line style="stroke: #A80036; stroke-width: 1.5;" x1="247.5" x2="247.5" y1="403.4844" y2="423.4844"/><polygon fill="#A80036" points="243.5,413.4844,247.5,423.4844,251.5,413.4844,247.5,417.4844" style="stroke: #A80036; stroke-width: 1.0;"/><line style="stroke: #A80036; stroke-width: 1.5;" x1="247.5" x2="247.5" y1="348.3906" y2="368.3906"/><polygon fill="#A80036" points="243.5,358.3906,247.5,368.3906,251.5,358.3906,247.5,362.3906" style="stroke: #A80036; stroke-width: 1.0;"/><line style="stroke: #A80036; stroke-width: 1.5;" x1="295" x2="431" y1="687.2695" y2="687.2695"/><polygon fill="#A80036" points="427,514.3945,431,504.3945,435,514.3945,431,510.3945" style="stroke: #A80036; stroke-width: 1.5;"/><line style="stroke: #A80036; stroke-width: 1.5;" x1="431" x2="431" y1="330.8438" y2="687.2695"/><line style="stroke: #A80036; stroke-width: 1.5;" x1="431" x2="419" y1="330.8438" y2="330.8438"/><polygon fill="#A80036" points="429,326.8438,419,330.8438,429,334.8438,425,330.8438" style="stroke: #A80036; stroke-width: 1.0;"/><line style="stroke: #A80036; stroke-width: 1.5;" x1="247.5" x2="247.5" y1="655.2695" y2="675.2695"/><polygon fill="#A80036" points="243.5,665.2695,247.5,675.2695,251.5,665.2695,247.5,669.2695" style="stroke: #A80036; stroke-width: 1.0;"/><line style="stroke: #A80036; stroke-width: 1.5;" x1="247.5" x2="247.5" y1="293.2969" y2="313.2969"/><polygon fill="#A80036" points="243.5,303.2969,247.5,313.2969,251.5,303.2969,247.5,307.2969" style="stroke: #A80036; stroke-width: 1.0;"/><line style="stroke: #A80036; stroke-width: 1.5;" x1="247.5" x2="247.5" y1="238.2031" y2="258.2031"/><polygon fill="#A80036" points="243.5,248.2031,247.5,258.2031,251.5,248.2031,247.5,252.2031" style="stroke: #A80036; stroke-width: 1.0;"/><line style="stroke: #A80036; stroke-width: 1.5;" x1="320.5" x2="449" y1="731.2695" y2="731.2695"/><polygon fill="#A80036" points="445,473.8008,449,463.8008,453,473.8008,449,469.8008" style="stroke: #A80036; stroke-width: 1.5;"/><line style="stroke: #A80036; stroke-width: 1.5;" x1="449" x2="449" y1="220.6563" y2="731.2695"/><line style="stroke: #A80036; stroke-width: 1.5;" x1="449" x2="408.5" y1="220.6563" y2="220.6563"/><polygon fill="#A80036" points="418.5,216.6563,408.5,220.6563,418.5,224.6563,414.5,220.6563" style="stroke: #A80036; stroke-width: 1.0;"/><line style="stroke: #A80036; stroke-width: 1.5;" x1="247.5" x2="247.5" y1="699.2695" y2="719.2695"/><polygon fill="#A80036" points="243.5,709.2695,247.5,719.2695,251.5,709.2695,247.5,713.2695" style="stroke: #A80036; stroke-width: 1.0;"/><line style="stroke: #A80036; stroke-width: 1.5;" x1="247.5" x2="247.5" y1="183.1094" y2="203.1094"/><polygon fill="#A80036" points="243.5,193.1094,247.5,203.1094,251.5,193.1094,247.5,197.1094" style="stroke: #A80036; stroke-width: 1.0;"/><line style="stroke: #A80036; stroke-width: 1.5;" x1="247.5" x2="247.5" y1="743.2695" y2="763.2695"/><polygon fill="#A80036" points="243.5,753.2695,247.5,763.2695,251.5,753.2695,247.5,757.2695" style="stroke: #A80036; stroke-width: 1.0;"/><!--
@startuml
start
skinparam titleBorderRoundCorner 14
skinparam titleBorderColor red
skinparam titleBackgroundColor Moccasin
title **Алгоритм синхронизации с НСИ**
:Формирование параметров синхронизации
* выбор справочников
* установка параметов для каждого справочника
**  метка времени
**  количество объектов в пакете;
repeat :Инициализация цикла по выбранным справочникам
:Выбор справочника;
repeat :Формирование soap-запроса получения данных из НСИ 
:Получение данных;
if (Есть данные?) then
  :Обработать данные;
note left
Для каждого 
справочника 
определен свой 
алгоритм обработки
end note
  :Сдвинуть метку времени; 
note left
Приходит из НСИ и
используется при 
запросе данных
end note
endif
  repeat while (Есть данные?)
repeat while (Есть еще справочники?)
stop
@enduml

PlantUML version 1.2019.06(Fri May 24 20:10:25 MSK 2019)
(GPL source distribution)
Java Runtime: Java(TM) SE Runtime Environment
JVM: Java HotSpot(TM) 64-Bit Server VM
Java Version: 1.8.0_241-b07
Operating System: Windows 10
OS Version: 10.0
Default Encoding: UTF-8
Language: en
Country: US
--></g></svg>